<?xml version="1.0" encoding="UTF-8" standalone="no"?>
<!-- Created with Serif DrawPlus 11, 0, 3, 23 (Feb 25, 14:12:55) (http://www.serif.com) -->
<svg version="1.1" xmlns="http://www.w3.org/2000/svg" xmlns:xlink="http://www.w3.org/1999/xlink" width="314.311" height="112.064">
	<g id="dp_group001" transform="matrix(1,0,0,1,-33.032,-545.673)">
		<path id="dp_path002" fill="#5cbcfc" fill-rule="evenodd" d="M 334.763,653.616 C 360.911,648.92 341.876,611.977 319.833,630.705 C 344.645,602.52 289.672,577.964 278.015,614.103 C 304.865,570.125 203.945,539.533 193.843,596.888 C 222.444,528.38 54.3053,525.348 92.8,607.319 C 43.5467,579.451 7.152,651.561 56.192,653.932 C 56.192,653.932 56.192,653.932 56.192,653.932 C 151.993,660.805 316.1,656.968 334.763,653.616 Z "/>
		<path id="dp_path003" fill="#badaff" fill-rule="evenodd" d="M 313.247,649.936 C 335.589,646.513 319.325,619.591 300.491,633.239 C 321.691,612.697 274.719,594.801 264.759,621.139 C 287.701,589.089 201.469,566.795 192.837,608.593 C 217.276,558.665 73.6093,556.456 106.501,616.195 C 64.416,595.885 33.3187,648.439 75.2213,650.167 C 75.2213,650.167 75.2213,650.167 75.2213,650.167 C 157.079,655.176 297.3,652.379 313.247,649.936 Z "/>
		<g id="dp_group004">
			<path id="dp_path005" fill="white" fill-rule="evenodd" stroke="none" stroke-width="1.33333" d="M 142.451,577.275 C 146.263,574.815 151.881,575.123 155.003,577.963 C 158.123,580.803 157.563,585.099 153.751,587.559 C 149.937,590.019 144.319,589.712 141.199,586.871 C 138.077,584.031 138.637,579.735 142.451,577.275 Z "/>
			<path id="dp_path006" fill="white" fill-rule="evenodd" stroke="none" stroke-width="1.33333" d="M 115.089,583.968 C 119.661,581.017 126.405,581.385 130.149,584.793 C 133.893,588.201 133.22,593.356 128.647,596.308 C 124.075,599.259 117.331,598.889 113.587,595.483 C 109.843,592.075 110.516,586.919 115.089,583.968 Z "/>
			<path id="dp_path007" fill="white" fill-rule="evenodd" stroke="none" stroke-width="1.33333" d="M 164.385,582.147 C 167.435,580.179 171.929,580.424 174.427,582.696 C 176.923,584.968 176.475,588.404 173.425,590.372 C 170.376,592.34 165.881,592.095 163.384,589.823 C 160.888,587.551 161.336,584.115 164.385,582.147 Z "/>
			<path id="dp_path008" fill="white" fill-rule="evenodd" stroke="none" stroke-width="1.33333" d="M 178.257,592.024 C 180.545,590.547 183.917,590.732 185.789,592.436 C 187.661,594.14 187.325,596.717 185.037,598.195 C 182.749,599.671 179.377,599.485 177.505,597.781 C 175.633,596.077 175.969,593.5 178.257,592.024 Z "/>
			<path id="dp_path009" fill="white" fill-rule="evenodd" stroke="none" stroke-width="1.33333" d="M 184.233,600.483 C 185.757,599.499 188.005,599.623 189.255,600.759 C 190.503,601.896 190.28,603.615 188.755,604.599 C 187.229,605.583 184.983,605.459 183.733,604.323 C 182.485,603.185 182.708,601.467 184.233,600.483 Z "/>
		</g>
	</g>
</svg>